<?xml version="1.0" encoding="UTF-8" standalone="no"?>
<!DOCTYPE svg PUBLIC "-//W3C//DTD SVG 1.1//EN"
 "http://www.w3.org/Graphics/SVG/1.1/DTD/svg11.dtd">
<!-- Generated by graphviz version 2.43.0 (0)
 -->
<!-- Title: %3 Pages: 1 -->
<svg width="781pt" height="283pt"
 viewBox="0.00 0.00 780.74 283.00" xmlns="http://www.w3.org/2000/svg" xmlns:xlink="http://www.w3.org/1999/xlink">
<g id="graph0" class="graph" transform="scale(1 1) rotate(0) translate(4 279)">
<title>%3</title>
<polygon fill="white" stroke="transparent" points="-4,4 -4,-279 776.74,-279 776.74,4 -4,4"/>
<text text-anchor="start" x="209.87" y="-260.8" font-family="Times,serif" font-size="14.00" fill="blue">stage one (built from source) </text>
<text text-anchor="start" x="372.87" y="-260.8" font-family="Times,serif" font-size="14.00">to </text>
<text text-anchor="start" x="387.87" y="-260.8" font-family="Times,serif" font-size="14.00" fill="purple">stage two (re&#45;built from source)</text>
<!-- stage_zero_cmake -->
<g id="node1" class="node">
<title>stage_zero_cmake</title>
<ellipse fill="none" stroke="red" cx="517.7" cy="-162" rx="34.39" ry="18"/>
<text text-anchor="middle" x="517.7" y="-158.3" font-family="Times,serif" font-size="14.00">cmake</text>
</g>
<!-- stage_zero_ninja -->
<g id="node5" class="node">
<title>stage_zero_ninja</title>
<ellipse fill="none" stroke="red" cx="573.7" cy="-90" rx="28.7" ry="18"/>
<text text-anchor="middle" x="573.7" y="-86.3" font-family="Times,serif" font-size="14.00">ninja</text>
</g>
<!-- stage_zero_cmake&#45;&gt;stage_zero_ninja -->
<g id="edge12" class="edge">
<title>stage_zero_cmake&#45;&gt;stage_zero_ninja</title>
<path fill="none" stroke="black" d="M530.4,-145.12C537.66,-136.04 546.9,-124.49 554.98,-114.39"/>
<polygon fill="black" stroke="black" points="557.91,-116.34 561.42,-106.34 552.44,-111.96 557.91,-116.34"/>
</g>
<!-- stage_zero_gcc -->
<g id="node2" class="node">
<title>stage_zero_gcc</title>
<ellipse fill="none" stroke="red" cx="323.7" cy="-234" rx="40.09" ry="18"/>
<text text-anchor="middle" x="323.7" y="-230.3" font-family="Times,serif" font-size="14.00">libgcc_s</text>
</g>
<!-- stage_one_clang -->
<g id="node11" class="node">
<title>stage_one_clang</title>
<ellipse fill="none" stroke="blue" cx="426.7" cy="-162" rx="29.8" ry="18"/>
<text text-anchor="middle" x="426.7" y="-158.3" font-family="Times,serif" font-size="14.00">clang</text>
</g>
<!-- stage_zero_gcc&#45;&gt;stage_one_clang -->
<g id="edge13" class="edge">
<title>stage_zero_gcc&#45;&gt;stage_one_clang</title>
<path fill="none" stroke="red" d="M345.04,-218.5C360.69,-207.86 382.09,-193.32 399.05,-181.79"/>
<polygon fill="red" stroke="red" points="401.16,-184.58 407.47,-176.07 397.23,-178.8 401.16,-184.58"/>
</g>
<!-- stage_one_lld -->
<g id="node15" class="node">
<title>stage_one_lld</title>
<ellipse fill="none" stroke="blue" cx="337.7" cy="-162" rx="27" ry="18"/>
<text text-anchor="middle" x="337.7" y="-158.3" font-family="Times,serif" font-size="14.00">lld</text>
</g>
<!-- stage_zero_gcc&#45;&gt;stage_one_lld -->
<g id="edge14" class="edge">
<title>stage_zero_gcc&#45;&gt;stage_one_lld</title>
<path fill="none" stroke="red" d="M327.08,-216.05C328.63,-208.35 330.49,-199.03 332.22,-190.36"/>
<polygon fill="red" stroke="red" points="335.71,-190.77 334.24,-180.28 328.85,-189.39 335.71,-190.77"/>
</g>
<!-- stage_zero_git -->
<g id="node3" class="node">
<title>stage_zero_git</title>
<ellipse fill="none" stroke="red" cx="516.7" cy="-234" rx="27" ry="18"/>
<text text-anchor="middle" x="516.7" y="-230.3" font-family="Times,serif" font-size="14.00">git</text>
</g>
<!-- stage_zero_git&#45;&gt;stage_zero_cmake -->
<g id="edge15" class="edge">
<title>stage_zero_git&#45;&gt;stage_zero_cmake</title>
<path fill="none" stroke="black" d="M516.94,-215.7C517.05,-207.98 517.19,-198.71 517.31,-190.11"/>
<polygon fill="black" stroke="black" points="520.81,-190.15 517.45,-180.1 513.81,-190.05 520.81,-190.15"/>
</g>
<!-- stage_zero_musl -->
<g id="node4" class="node">
<title>stage_zero_musl</title>
<ellipse fill="none" stroke="red" cx="703.7" cy="-234" rx="44.39" ry="18"/>
<text text-anchor="middle" x="703.7" y="-230.3" font-family="Times,serif" font-size="14.00">musl&#45;dev</text>
</g>
<!-- stage_zero_musl&#45;&gt;stage_zero_cmake -->
<g id="edge21" class="edge">
<title>stage_zero_musl&#45;&gt;stage_zero_cmake</title>
<path fill="none" stroke="black" d="M672.14,-221.13C639.6,-208.88 588.88,-189.79 554.52,-176.86"/>
<polygon fill="black" stroke="black" points="555.45,-173.47 544.86,-173.22 552.98,-180.02 555.45,-173.47"/>
</g>
<!-- stage_zero_musl&#45;&gt;stage_zero_ninja -->
<g id="edge22" class="edge">
<title>stage_zero_musl&#45;&gt;stage_zero_ninja</title>
<path fill="none" stroke="black" d="M673.3,-220.9C646.07,-209.51 608.88,-192.38 598.7,-180 584.39,-162.62 578.26,-137.57 575.63,-118.47"/>
<polygon fill="black" stroke="black" points="579.08,-117.83 574.48,-108.29 572.13,-118.62 579.08,-117.83"/>
</g>
<!-- stage_zero_musl&#45;&gt;stage_one_clang -->
<g id="edge16" class="edge">
<title>stage_zero_musl&#45;&gt;stage_one_clang</title>
<path fill="none" stroke="red" d="M670.78,-221.83C664.17,-219.76 657.24,-217.71 650.7,-216 573.46,-195.78 551.62,-201.38 474.7,-180 470.26,-178.77 465.65,-177.34 461.11,-175.83"/>
<polygon fill="red" stroke="red" points="461.99,-172.43 451.4,-172.49 459.71,-179.05 461.99,-172.43"/>
</g>
<!-- stage_one_cxx -->
<g id="node12" class="node">
<title>stage_one_cxx</title>
<ellipse fill="none" stroke="blue" cx="647.7" cy="-90" rx="27" ry="18"/>
<text text-anchor="middle" x="647.7" y="-86.3" font-family="Times,serif" font-size="14.00">cxx</text>
</g>
<!-- stage_zero_musl&#45;&gt;stage_one_cxx -->
<g id="edge17" class="edge">
<title>stage_zero_musl&#45;&gt;stage_one_cxx</title>
<path fill="none" stroke="red" d="M702.1,-215.99C699.91,-197.61 695.02,-167.76 684.7,-144 680.15,-133.55 673.39,-123.05 666.89,-114.18"/>
<polygon fill="red" stroke="red" points="669.67,-112.06 660.81,-106.24 664.11,-116.31 669.67,-112.06"/>
</g>
<!-- stage_one_cxxabi -->
<g id="node13" class="node">
<title>stage_one_cxxabi</title>
<ellipse fill="none" stroke="blue" cx="641.7" cy="-162" rx="34.39" ry="18"/>
<text text-anchor="middle" x="641.7" y="-158.3" font-family="Times,serif" font-size="14.00">cxxabi</text>
</g>
<!-- stage_zero_musl&#45;&gt;stage_one_cxxabi -->
<g id="edge18" class="edge">
<title>stage_zero_musl&#45;&gt;stage_one_cxxabi</title>
<path fill="none" stroke="red" d="M689.32,-216.76C681.3,-207.71 671.18,-196.29 662.33,-186.3"/>
<polygon fill="red" stroke="red" points="664.82,-183.83 655.57,-178.67 659.58,-188.47 664.82,-183.83"/>
</g>
<!-- stage_zero_musl&#45;&gt;stage_one_lld -->
<g id="edge19" class="edge">
<title>stage_zero_musl&#45;&gt;stage_one_lld</title>
<path fill="none" stroke="red" d="M671.43,-221.66C664.64,-219.56 657.48,-217.54 650.7,-216 535.64,-189.88 502.52,-207.11 387.7,-180 381.92,-178.64 375.87,-176.88 370.06,-175.01"/>
<polygon fill="red" stroke="red" points="371.17,-171.69 360.58,-171.81 368.93,-178.32 371.17,-171.69"/>
</g>
<!-- stage_one_unwind -->
<g id="node17" class="node">
<title>stage_one_unwind</title>
<ellipse fill="none" stroke="blue" cx="735.7" cy="-90" rx="37.09" ry="18"/>
<text text-anchor="middle" x="735.7" y="-86.3" font-family="Times,serif" font-size="14.00">unwind</text>
</g>
<!-- stage_zero_musl&#45;&gt;stage_one_unwind -->
<g id="edge20" class="edge">
<title>stage_zero_musl&#45;&gt;stage_one_unwind</title>
<path fill="none" stroke="red" d="M708.49,-215.88C711.32,-205.53 714.89,-192.05 717.7,-180 722.49,-159.4 727.21,-135.95 730.61,-118.29"/>
<polygon fill="red" stroke="red" points="734.11,-118.6 732.54,-108.13 727.23,-117.3 734.11,-118.6"/>
</g>
<!-- stage_two_clang -->
<g id="node18" class="node">
<title>stage_two_clang</title>
<ellipse fill="none" stroke="purple" cx="497.7" cy="-18" rx="29.8" ry="18"/>
<text text-anchor="middle" x="497.7" y="-14.3" font-family="Times,serif" font-size="14.00">clang</text>
</g>
<!-- stage_zero_ninja&#45;&gt;stage_two_clang -->
<g id="edge23" class="edge">
<title>stage_zero_ninja&#45;&gt;stage_two_clang</title>
<path fill="none" stroke="black" d="M557.95,-74.5C547.25,-64.64 532.91,-51.44 520.91,-40.38"/>
<polygon fill="black" stroke="black" points="523.15,-37.69 513.42,-33.49 518.41,-42.83 523.15,-37.69"/>
</g>
<!-- stage_two_lld -->
<g id="node19" class="node">
<title>stage_two_lld</title>
<ellipse fill="none" stroke="purple" cx="202.7" cy="-18" rx="27" ry="18"/>
<text text-anchor="middle" x="202.7" y="-14.3" font-family="Times,serif" font-size="14.00">lld</text>
</g>
<!-- stage_zero_ninja&#45;&gt;stage_two_lld -->
<g id="edge24" class="edge">
<title>stage_zero_ninja&#45;&gt;stage_two_lld</title>
<path fill="none" stroke="black" d="M546.72,-83.91C481.08,-71.52 313.02,-39.82 238.83,-25.82"/>
<polygon fill="black" stroke="black" points="239.06,-22.3 228.58,-23.88 237.76,-29.18 239.06,-22.3"/>
</g>
<!-- stage_zero_python -->
<g id="node6" class="node">
<title>stage_zero_python</title>
<ellipse fill="none" stroke="red" cx="601.7" cy="-234" rx="39.79" ry="18"/>
<text text-anchor="middle" x="601.7" y="-230.3" font-family="Times,serif" font-size="14.00">python3</text>
</g>
<!-- stage_zero_python&#45;&gt;stage_zero_cmake -->
<g id="edge25" class="edge">
<title>stage_zero_python&#45;&gt;stage_zero_cmake</title>
<path fill="none" stroke="black" d="M583.47,-217.81C571.64,-207.95 556.06,-194.97 543.04,-184.12"/>
<polygon fill="black" stroke="black" points="545.23,-181.39 535.31,-177.68 540.75,-186.77 545.23,-181.39"/>
</g>
<!-- stage_zero_stdcxx -->
<g id="node7" class="node">
<title>stage_zero_stdcxx</title>
<ellipse fill="none" stroke="red" cx="426.7" cy="-234" rx="44.69" ry="18"/>
<text text-anchor="middle" x="426.7" y="-230.3" font-family="Times,serif" font-size="14.00">libstdc++</text>
</g>
<!-- stage_zero_stdcxx&#45;&gt;stage_zero_cmake -->
<g id="edge28" class="edge">
<title>stage_zero_stdcxx&#45;&gt;stage_zero_cmake</title>
<path fill="none" stroke="black" d="M446.44,-217.81C459.55,-207.73 476.91,-194.37 491.22,-183.37"/>
<polygon fill="black" stroke="black" points="493.44,-186.08 499.23,-177.21 489.17,-180.53 493.44,-186.08"/>
</g>
<!-- stage_zero_stdcxx&#45;&gt;stage_one_clang -->
<g id="edge26" class="edge">
<title>stage_zero_stdcxx&#45;&gt;stage_one_clang</title>
<path fill="none" stroke="red" d="M426.7,-215.7C426.7,-207.98 426.7,-198.71 426.7,-190.11"/>
<polygon fill="red" stroke="red" points="430.2,-190.1 426.7,-180.1 423.2,-190.1 430.2,-190.1"/>
</g>
<!-- stage_zero_stdcxx&#45;&gt;stage_one_lld -->
<g id="edge27" class="edge">
<title>stage_zero_stdcxx&#45;&gt;stage_one_lld</title>
<path fill="none" stroke="red" d="M406.94,-217.46C393.88,-207.19 376.65,-193.64 362.64,-182.62"/>
<polygon fill="red" stroke="red" points="364.43,-179.57 354.4,-176.14 360.1,-185.07 364.43,-179.57"/>
</g>
<!-- stage_zero_zlib -->
<g id="node8" class="node">
<title>stage_zero_zlib</title>
<ellipse fill="none" stroke="red" cx="225.7" cy="-234" rx="39.79" ry="18"/>
<text text-anchor="middle" x="225.7" y="-230.3" font-family="Times,serif" font-size="14.00">zlib&#45;dev</text>
</g>
<!-- stage_zero_zlib&#45;&gt;stage_one_clang -->
<g id="edge29" class="edge">
<title>stage_zero_zlib&#45;&gt;stage_one_clang</title>
<path fill="none" stroke="red" d="M256.22,-222.37C292.62,-209.69 353.31,-188.56 391.61,-175.22"/>
<polygon fill="red" stroke="red" points="393.01,-178.44 401.3,-171.84 390.71,-171.83 393.01,-178.44"/>
</g>
<!-- stage_zero_zlib&#45;&gt;stage_one_lld -->
<g id="edge30" class="edge">
<title>stage_zero_zlib&#45;&gt;stage_one_lld</title>
<path fill="none" stroke="red" d="M248.09,-219C265.95,-207.84 291.03,-192.16 310.12,-180.23"/>
<polygon fill="red" stroke="red" points="312.07,-183.15 318.69,-174.88 308.36,-177.21 312.07,-183.15"/>
</g>
<!-- stage_zero_zlib_s -->
<g id="node9" class="node">
<title>stage_zero_zlib_s</title>
<ellipse fill="none" stroke="red" cx="202.7" cy="-90" rx="45.49" ry="18"/>
<text text-anchor="middle" x="202.7" y="-86.3" font-family="Times,serif" font-size="14.00">zlib&#45;static</text>
</g>
<!-- stage_zero_zlib_s&#45;&gt;stage_two_clang -->
<g id="edge31" class="edge">
<title>stage_zero_zlib_s&#45;&gt;stage_two_clang</title>
<path fill="none" stroke="red" d="M236.9,-77.95C243.76,-75.87 250.93,-73.79 257.7,-72 328.41,-53.3 412.03,-35.88 459.57,-26.41"/>
<polygon fill="red" stroke="red" points="460.3,-29.83 469.43,-24.46 458.94,-22.96 460.3,-29.83"/>
</g>
<!-- stage_zero_zlib_s&#45;&gt;stage_two_lld -->
<g id="edge32" class="edge">
<title>stage_zero_zlib_s&#45;&gt;stage_two_lld</title>
<path fill="none" stroke="red" d="M202.7,-71.7C202.7,-63.98 202.7,-54.71 202.7,-46.11"/>
<polygon fill="red" stroke="red" points="206.2,-46.1 202.7,-36.1 199.2,-46.1 206.2,-46.1"/>
</g>
<!-- stage_one_builtins -->
<g id="node10" class="node">
<title>stage_one_builtins</title>
<ellipse fill="none" stroke="blue" cx="50.7" cy="-162" rx="37.09" ry="18"/>
<text text-anchor="middle" x="50.7" y="-158.3" font-family="Times,serif" font-size="14.00">builtins</text>
</g>
<!-- stage_one_rtlib -->
<g id="node16" class="node">
<title>stage_one_rtlib</title>
<ellipse fill="none" stroke="blue" cx="50.7" cy="-90" rx="50.89" ry="18"/>
<text text-anchor="middle" x="50.7" y="-86.3" font-family="Times,serif" font-size="14.00">compiler&#45;rt</text>
</g>
<!-- stage_one_builtins&#45;&gt;stage_one_rtlib -->
<g id="edge1" class="edge">
<title>stage_one_builtins&#45;&gt;stage_one_rtlib</title>
<path fill="none" stroke="black" d="M50.7,-143.7C50.7,-135.98 50.7,-126.71 50.7,-118.11"/>
<polygon fill="black" stroke="black" points="54.2,-118.1 50.7,-108.1 47.2,-118.1 54.2,-118.1"/>
</g>
<!-- stage_one_clang&#45;&gt;stage_two_clang -->
<g id="edge2" class="edge">
<title>stage_one_clang&#45;&gt;stage_two_clang</title>
<path fill="none" stroke="black" d="M448.95,-149.68C464.16,-140.63 483.22,-126.43 492.7,-108 502.46,-89.02 503.15,-64.66 501.72,-46.22"/>
<polygon fill="black" stroke="black" points="505.19,-45.72 500.68,-36.14 498.22,-46.44 505.19,-45.72"/>
</g>
<!-- stage_one_cxx&#45;&gt;stage_two_clang -->
<g id="edge3" class="edge">
<title>stage_one_cxx&#45;&gt;stage_two_clang</title>
<path fill="none" stroke="black" d="M626.39,-78.91C621.56,-76.63 616.45,-74.23 611.7,-72 584.2,-59.12 552.92,-44.58 530.09,-34"/>
<polygon fill="black" stroke="black" points="531.4,-30.75 520.86,-29.72 528.46,-37.1 531.4,-30.75"/>
</g>
<!-- stage_one_cxxabi&#45;&gt;stage_one_cxx -->
<g id="edge4" class="edge">
<title>stage_one_cxxabi&#45;&gt;stage_one_cxx</title>
<path fill="none" stroke="black" d="M643.18,-143.7C643.84,-135.98 644.63,-126.71 645.37,-118.11"/>
<polygon fill="black" stroke="black" points="648.86,-118.37 646.23,-108.1 641.89,-117.77 648.86,-118.37"/>
</g>
<!-- stage_one_hdrs -->
<g id="node14" class="node">
<title>stage_one_hdrs</title>
<ellipse fill="none" stroke="blue" cx="358.7" cy="-90" rx="92.08" ry="18"/>
<text text-anchor="middle" x="358.7" y="-86.3" font-family="Times,serif" font-size="14.00">clang&#45;resource&#45;headers</text>
</g>
<!-- stage_one_hdrs&#45;&gt;stage_two_clang -->
<g id="edge5" class="edge">
<title>stage_one_hdrs&#45;&gt;stage_two_clang</title>
<path fill="none" stroke="black" d="M390.58,-72.94C413.31,-61.5 443.71,-46.19 466.31,-34.8"/>
<polygon fill="black" stroke="black" points="468.12,-37.81 475.48,-30.19 464.98,-31.56 468.12,-37.81"/>
</g>
<!-- stage_one_hdrs&#45;&gt;stage_two_lld -->
<g id="edge6" class="edge">
<title>stage_one_hdrs&#45;&gt;stage_two_lld</title>
<path fill="none" stroke="black" d="M323.69,-73.29C296.76,-61.21 259.9,-44.67 233.96,-33.03"/>
<polygon fill="black" stroke="black" points="235.15,-29.73 224.6,-28.83 232.29,-36.12 235.15,-29.73"/>
</g>
<!-- stage_one_lld&#45;&gt;stage_two_clang -->
<g id="edge7" class="edge">
<title>stage_one_lld&#45;&gt;stage_two_clang</title>
<path fill="none" stroke="black" d="M361.26,-153.12C392.48,-142.28 445.29,-122.5 459.7,-108 476.56,-91.03 486.42,-65.4 491.85,-45.99"/>
<polygon fill="black" stroke="black" points="495.26,-46.78 494.36,-36.22 488.48,-45.04 495.26,-46.78"/>
</g>
<!-- stage_one_lld&#45;&gt;stage_two_lld -->
<g id="edge8" class="edge">
<title>stage_one_lld&#45;&gt;stage_two_lld</title>
<path fill="none" stroke="black" d="M311.5,-157.55C264.39,-150.76 168.41,-134 148.7,-108 131.56,-85.4 155.73,-57.06 177,-38.51"/>
<polygon fill="black" stroke="black" points="179.48,-41 184.92,-31.91 175,-35.62 179.48,-41"/>
</g>
<!-- stage_one_rtlib&#45;&gt;stage_two_clang -->
<g id="edge9" class="edge">
<title>stage_one_rtlib&#45;&gt;stage_two_clang</title>
<path fill="none" stroke="black" d="M95.06,-81.1C111.85,-78.16 131.14,-74.86 148.7,-72 261,-53.73 393.98,-34.09 458.57,-24.67"/>
<polygon fill="black" stroke="black" points="459.32,-28.1 468.71,-23.19 458.31,-21.17 459.32,-28.1"/>
</g>
<!-- stage_one_rtlib&#45;&gt;stage_two_lld -->
<g id="edge10" class="edge">
<title>stage_one_rtlib&#45;&gt;stage_two_lld</title>
<path fill="none" stroke="black" d="M80.36,-75.34C106.68,-63.22 144.98,-45.58 171.69,-33.28"/>
<polygon fill="black" stroke="black" points="173.35,-36.37 180.96,-29.01 170.42,-30.01 173.35,-36.37"/>
</g>
<!-- stage_one_unwind&#45;&gt;stage_two_clang -->
<g id="edge11" class="edge">
<title>stage_one_unwind&#45;&gt;stage_two_clang</title>
<path fill="none" stroke="black" d="M706.06,-79.09C698.76,-76.72 690.96,-74.22 683.7,-72 632.19,-56.25 572.2,-39.43 534.58,-29.06"/>
<polygon fill="black" stroke="black" points="535.16,-25.59 524.59,-26.31 533.3,-32.34 535.16,-25.59"/>
</g>
</g>
</svg>
