<?xml version="1.0" encoding="UTF-8" standalone="no"?>
<!DOCTYPE svg PUBLIC "-//W3C//DTD SVG 1.1//EN"
 "http://www.w3.org/Graphics/SVG/1.1/DTD/svg11.dtd">
<!-- Generated by graphviz version 2.43.0 (0)
 -->
<!-- Title: %3 Pages: 1 -->
<svg width="816pt" height="643pt"
 viewBox="0.00 0.00 816.29 643.00" xmlns="http://www.w3.org/2000/svg" xmlns:xlink="http://www.w3.org/1999/xlink">
<g id="graph0" class="graph" transform="scale(1 1) rotate(0) translate(4 639)">
<title>%3</title>
<polygon fill="white" stroke="transparent" points="-4,4 -4,-639 812.29,-639 812.29,4 -4,4"/>
<text text-anchor="start" x="239.15" y="-620.8" font-family="Times,serif" font-size="14.00" fill="red">stage zero (alpine prebuilts) </text>
<text text-anchor="start" x="395.15" y="-620.8" font-family="Times,serif" font-size="14.00">to </text>
<text text-anchor="start" x="410.15" y="-620.8" font-family="Times,serif" font-size="14.00" fill="blue">stage one (built from source)</text>
<!-- stage_zero_clang -->
<g id="node1" class="node">
<title>stage_zero_clang</title>
<ellipse fill="none" stroke="red" cx="619" cy="-522" rx="29.8" ry="18"/>
<text text-anchor="middle" x="619" y="-518.3" font-family="Times,serif" font-size="14.00">clang</text>
</g>
<!-- stage_one_clang -->
<g id="node17" class="node">
<title>stage_one_clang</title>
<ellipse fill="none" stroke="blue" cx="528" cy="-378" rx="29.8" ry="18"/>
<text text-anchor="middle" x="528" y="-374.3" font-family="Times,serif" font-size="14.00">clang</text>
</g>
<!-- stage_zero_clang&#45;&gt;stage_one_clang -->
<g id="edge16" class="edge">
<title>stage_zero_clang&#45;&gt;stage_one_clang</title>
<path fill="none" stroke="black" d="M613.63,-504C607.28,-485.37 595.59,-455.06 580,-432 572.14,-420.37 561.56,-409.05 551.99,-399.87"/>
<polygon fill="black" stroke="black" points="554.32,-397.25 544.61,-393.01 549.55,-402.38 554.32,-397.25"/>
</g>
<!-- stage_zero_lld -->
<g id="node2" class="node">
<title>stage_zero_lld</title>
<ellipse fill="none" stroke="red" cx="694" cy="-522" rx="27" ry="18"/>
<text text-anchor="middle" x="694" y="-518.3" font-family="Times,serif" font-size="14.00">lld</text>
</g>
<!-- stage_zero_lld&#45;&gt;stage_one_clang -->
<g id="edge22" class="edge">
<title>stage_zero_lld&#45;&gt;stage_one_clang</title>
<path fill="none" stroke="black" d="M680.47,-506.4C663.24,-488.14 632.2,-456.33 603,-432 588.19,-419.66 570.64,-407.15 556.24,-397.39"/>
<polygon fill="black" stroke="black" points="557.99,-394.35 547.74,-391.69 554.1,-400.17 557.99,-394.35"/>
</g>
<!-- stage_zero_musl -->
<g id="node3" class="node">
<title>stage_zero_musl</title>
<ellipse fill="none" stroke="red" cx="130" cy="-594" rx="44.39" ry="18"/>
<text text-anchor="middle" x="130" y="-590.3" font-family="Times,serif" font-size="14.00">musl&#45;dev</text>
</g>
<!-- stage_zero_cmake -->
<g id="node4" class="node">
<title>stage_zero_cmake</title>
<ellipse fill="none" stroke="red" cx="356" cy="-522" rx="34.39" ry="18"/>
<text text-anchor="middle" x="356" y="-518.3" font-family="Times,serif" font-size="14.00">cmake</text>
</g>
<!-- stage_zero_musl&#45;&gt;stage_zero_cmake -->
<g id="edge29" class="edge">
<title>stage_zero_musl&#45;&gt;stage_zero_cmake</title>
<path fill="none" stroke="black" d="M165.29,-583.07C201.32,-572.79 258.79,-556.03 308,-540 311.53,-538.85 315.19,-537.62 318.85,-536.37"/>
<polygon fill="black" stroke="black" points="320.12,-539.63 328.42,-533.04 317.82,-533.02 320.12,-539.63"/>
</g>
<!-- stage_zero_ninja -->
<g id="node5" class="node">
<title>stage_zero_ninja</title>
<ellipse fill="none" stroke="red" cx="199" cy="-450" rx="28.7" ry="18"/>
<text text-anchor="middle" x="199" y="-446.3" font-family="Times,serif" font-size="14.00">ninja</text>
</g>
<!-- stage_zero_musl&#45;&gt;stage_zero_ninja -->
<g id="edge30" class="edge">
<title>stage_zero_musl&#45;&gt;stage_zero_ninja</title>
<path fill="none" stroke="black" d="M138.19,-576.15C150.18,-551.47 172.62,-505.28 186.64,-476.44"/>
<polygon fill="black" stroke="black" points="189.81,-477.91 191.04,-467.39 183.52,-474.85 189.81,-477.91"/>
</g>
<!-- stage_one_unwind -->
<g id="node14" class="node">
<title>stage_one_unwind</title>
<ellipse fill="none" stroke="blue" cx="273" cy="-162" rx="37.09" ry="18"/>
<text text-anchor="middle" x="273" y="-158.3" font-family="Times,serif" font-size="14.00">unwind</text>
</g>
<!-- stage_zero_musl&#45;&gt;stage_one_unwind -->
<g id="edge28" class="edge">
<title>stage_zero_musl&#45;&gt;stage_one_unwind</title>
<path fill="none" stroke="red" d="M131.34,-575.9C134.79,-536.77 145.6,-438.07 172,-360 193.98,-294.99 234.43,-224.84 256.89,-188.34"/>
<polygon fill="red" stroke="red" points="260.15,-189.72 262.46,-179.38 254.21,-186.03 260.15,-189.72"/>
</g>
<!-- stage_one_cxxabi -->
<g id="node15" class="node">
<title>stage_one_cxxabi</title>
<ellipse fill="none" stroke="blue" cx="209" cy="-90" rx="34.39" ry="18"/>
<text text-anchor="middle" x="209" y="-86.3" font-family="Times,serif" font-size="14.00">cxxabi</text>
</g>
<!-- stage_zero_musl&#45;&gt;stage_one_cxxabi -->
<g id="edge26" class="edge">
<title>stage_zero_musl&#45;&gt;stage_one_cxxabi</title>
<path fill="none" stroke="red" d="M115.02,-576.95C93.4,-552.02 56,-501.6 56,-451 56,-451 56,-451 56,-233 56,-169.56 127.54,-126.49 172.78,-105.59"/>
<polygon fill="red" stroke="red" points="174.3,-108.74 182,-101.46 171.44,-102.35 174.3,-108.74"/>
</g>
<!-- stage_one_cxx -->
<g id="node16" class="node">
<title>stage_one_cxx</title>
<ellipse fill="none" stroke="blue" cx="241" cy="-18" rx="27" ry="18"/>
<text text-anchor="middle" x="241" y="-14.3" font-family="Times,serif" font-size="14.00">cxx</text>
</g>
<!-- stage_zero_musl&#45;&gt;stage_one_cxx -->
<g id="edge24" class="edge">
<title>stage_zero_musl&#45;&gt;stage_one_cxx</title>
<path fill="none" stroke="red" d="M101.64,-580.12C63.19,-558.39 0,-510.92 0,-451 0,-451 0,-451 0,-161 0,-68.21 136.67,-34.21 204.29,-23.41"/>
<polygon fill="red" stroke="red" points="205.15,-26.82 214.51,-21.87 204.1,-19.9 205.15,-26.82"/>
</g>
<!-- stage_zero_musl&#45;&gt;stage_one_cxx -->
<g id="edge25" class="edge">
<title>stage_zero_musl&#45;&gt;stage_one_cxx</title>
<path fill="none" stroke="red" d="M109.67,-577.92C77.16,-555.3 18,-508.98 18,-451 18,-451 18,-451 18,-161 18,-72.65 141.9,-37.6 205.1,-25.12"/>
<polygon fill="red" stroke="red" points="205.88,-28.54 215.06,-23.25 204.58,-21.66 205.88,-28.54"/>
</g>
<!-- stage_zero_musl&#45;&gt;stage_one_clang -->
<g id="edge23" class="edge">
<title>stage_zero_musl&#45;&gt;stage_one_clang</title>
<path fill="none" stroke="red" d="M153.97,-578.71C188.12,-558.98 253.25,-523.61 313,-504 397.15,-476.38 445.48,-529.72 509,-468 525.33,-452.13 529.29,-425.93 529.64,-406.05"/>
<polygon fill="red" stroke="red" points="533.14,-406.01 529.53,-396.05 526.14,-406.09 533.14,-406.01"/>
</g>
<!-- stage_one_lld -->
<g id="node18" class="node">
<title>stage_one_lld</title>
<ellipse fill="none" stroke="blue" cx="369" cy="-378" rx="27" ry="18"/>
<text text-anchor="middle" x="369" y="-374.3" font-family="Times,serif" font-size="14.00">lld</text>
</g>
<!-- stage_zero_musl&#45;&gt;stage_one_lld -->
<g id="edge27" class="edge">
<title>stage_zero_musl&#45;&gt;stage_one_lld</title>
<path fill="none" stroke="red" d="M146.48,-577.1C177.01,-547.8 244.66,-483.56 304,-432 317.04,-420.67 331.95,-408.46 344.2,-398.62"/>
<polygon fill="red" stroke="red" points="346.57,-401.2 352.2,-392.22 342.2,-395.74 346.57,-401.2"/>
</g>
<!-- stage_zero_cmake&#45;&gt;stage_zero_ninja -->
<g id="edge17" class="edge">
<title>stage_zero_cmake&#45;&gt;stage_zero_ninja</title>
<path fill="none" stroke="black" d="M330.43,-509.6C303.42,-497.55 260.76,-478.53 231.41,-465.45"/>
<polygon fill="black" stroke="black" points="232.57,-462.13 222.01,-461.26 229.71,-468.53 232.57,-462.13"/>
</g>
<!-- stage_one_builtins -->
<g id="node12" class="node">
<title>stage_one_builtins</title>
<ellipse fill="none" stroke="blue" cx="387" cy="-306" rx="37.09" ry="18"/>
<text text-anchor="middle" x="387" y="-302.3" font-family="Times,serif" font-size="14.00">builtins</text>
</g>
<!-- stage_zero_ninja&#45;&gt;stage_one_builtins -->
<g id="edge31" class="edge">
<title>stage_zero_ninja&#45;&gt;stage_one_builtins</title>
<path fill="none" stroke="black" d="M220.78,-438.03C239.74,-428.08 267.63,-412.48 290,-396 304.96,-384.98 340.06,-352.05 363.67,-329.49"/>
<polygon fill="black" stroke="black" points="366.39,-331.73 371.19,-322.28 361.55,-326.67 366.39,-331.73"/>
</g>
<!-- stage_one_rtlib -->
<g id="node13" class="node">
<title>stage_one_rtlib</title>
<ellipse fill="none" stroke="blue" cx="325" cy="-234" rx="50.89" ry="18"/>
<text text-anchor="middle" x="325" y="-230.3" font-family="Times,serif" font-size="14.00">compiler&#45;rt</text>
</g>
<!-- stage_zero_ninja&#45;&gt;stage_one_rtlib -->
<g id="edge36" class="edge">
<title>stage_zero_ninja&#45;&gt;stage_one_rtlib</title>
<path fill="none" stroke="black" d="M208.47,-432.92C230.16,-396.07 283.6,-305.31 309.89,-260.66"/>
<polygon fill="black" stroke="black" points="313.01,-262.26 315.07,-251.86 306.98,-258.7 313.01,-262.26"/>
</g>
<!-- stage_zero_ninja&#45;&gt;stage_one_unwind -->
<g id="edge37" class="edge">
<title>stage_zero_ninja&#45;&gt;stage_one_unwind</title>
<path fill="none" stroke="black" d="M203.41,-431.97C215.8,-384.08 251.01,-247.98 266.05,-189.85"/>
<polygon fill="black" stroke="black" points="269.5,-190.5 268.62,-179.94 262.72,-188.75 269.5,-190.5"/>
</g>
<!-- stage_zero_ninja&#45;&gt;stage_one_cxxabi -->
<g id="edge34" class="edge">
<title>stage_zero_ninja&#45;&gt;stage_one_cxxabi</title>
<path fill="none" stroke="black" d="M193.27,-432.18C184.82,-405.82 170,-353.05 170,-307 170,-307 170,-307 170,-233 170,-191.33 185.81,-145.16 197.3,-117.11"/>
<polygon fill="black" stroke="black" points="200.63,-118.22 201.29,-107.64 194.18,-115.49 200.63,-118.22"/>
</g>
<!-- stage_zero_ninja&#45;&gt;stage_one_cxx -->
<g id="edge33" class="edge">
<title>stage_zero_ninja&#45;&gt;stage_one_cxx</title>
<path fill="none" stroke="black" d="M185.49,-433.89C157.13,-400.57 94,-317.15 94,-235 94,-235 94,-235 94,-161 94,-97.33 166.21,-53.16 209.41,-32.42"/>
<polygon fill="black" stroke="black" points="211.08,-35.51 218.67,-28.12 208.13,-29.16 211.08,-35.51"/>
</g>
<!-- stage_zero_ninja&#45;&gt;stage_one_clang -->
<g id="edge32" class="edge">
<title>stage_zero_ninja&#45;&gt;stage_one_clang</title>
<path fill="none" stroke="black" d="M225.64,-443.33C283.87,-430.94 422.63,-401.42 490,-387.08"/>
<polygon fill="black" stroke="black" points="491.13,-390.42 500.18,-384.92 489.67,-383.58 491.13,-390.42"/>
</g>
<!-- stage_zero_ninja&#45;&gt;stage_one_lld -->
<g id="edge35" class="edge">
<title>stage_zero_ninja&#45;&gt;stage_one_lld</title>
<path fill="none" stroke="black" d="M222.31,-439.45C248.16,-428.85 291.07,-411.24 328,-396 330.9,-394.8 333.91,-393.56 336.93,-392.31"/>
<polygon fill="black" stroke="black" points="338.55,-395.43 346.45,-388.37 335.87,-388.96 338.55,-395.43"/>
</g>
<!-- stage_zero_python -->
<g id="node6" class="node">
<title>stage_zero_python</title>
<ellipse fill="none" stroke="red" cx="314" cy="-594" rx="39.79" ry="18"/>
<text text-anchor="middle" x="314" y="-590.3" font-family="Times,serif" font-size="14.00">python3</text>
</g>
<!-- stage_zero_python&#45;&gt;stage_zero_cmake -->
<g id="edge38" class="edge">
<title>stage_zero_python&#45;&gt;stage_zero_cmake</title>
<path fill="none" stroke="black" d="M323.95,-576.41C329.03,-567.95 335.3,-557.49 340.95,-548.08"/>
<polygon fill="black" stroke="black" points="343.97,-549.85 346.12,-539.47 337.97,-546.24 343.97,-549.85"/>
</g>
<!-- stage_zero_zlib -->
<g id="node7" class="node">
<title>stage_zero_zlib</title>
<ellipse fill="none" stroke="red" cx="460" cy="-450" rx="39.79" ry="18"/>
<text text-anchor="middle" x="460" y="-446.3" font-family="Times,serif" font-size="14.00">zlib&#45;dev</text>
</g>
<!-- stage_zero_zlib&#45;&gt;stage_one_clang -->
<g id="edge44" class="edge">
<title>stage_zero_zlib&#45;&gt;stage_one_clang</title>
<path fill="none" stroke="red" d="M475.43,-433.12C484.64,-423.64 496.47,-411.46 506.57,-401.06"/>
<polygon fill="red" stroke="red" points="509.1,-403.48 513.56,-393.86 504.08,-398.6 509.1,-403.48"/>
</g>
<!-- stage_zero_zlib&#45;&gt;stage_one_lld -->
<g id="edge45" class="edge">
<title>stage_zero_zlib&#45;&gt;stage_one_lld</title>
<path fill="none" stroke="red" d="M440.7,-434.15C427.18,-423.75 408.98,-409.75 394.3,-398.46"/>
<polygon fill="red" stroke="red" points="396.18,-395.49 386.12,-392.17 391.92,-401.04 396.18,-395.49"/>
</g>
<!-- stage_zero_git -->
<g id="node8" class="node">
<title>stage_zero_git</title>
<ellipse fill="none" stroke="red" cx="399" cy="-594" rx="27" ry="18"/>
<text text-anchor="middle" x="399" y="-590.3" font-family="Times,serif" font-size="14.00">git</text>
</g>
<!-- stage_zero_git&#45;&gt;stage_zero_cmake -->
<g id="edge20" class="edge">
<title>stage_zero_git&#45;&gt;stage_zero_cmake</title>
<path fill="none" stroke="black" d="M389.24,-577.12C383.93,-568.47 377.24,-557.58 371.25,-547.83"/>
<polygon fill="black" stroke="black" points="374.23,-546 366.02,-539.31 368.27,-549.66 374.23,-546"/>
</g>
<!-- stage_zero_stdcxx -->
<g id="node9" class="node">
<title>stage_zero_stdcxx</title>
<ellipse fill="none" stroke="red" cx="561" cy="-594" rx="44.69" ry="18"/>
<text text-anchor="middle" x="561" y="-590.3" font-family="Times,serif" font-size="14.00">libstdc++</text>
</g>
<!-- stage_zero_stdcxx&#45;&gt;stage_zero_clang -->
<g id="edge41" class="edge">
<title>stage_zero_stdcxx&#45;&gt;stage_zero_clang</title>
<path fill="none" stroke="black" d="M574.45,-576.76C581.88,-567.8 591.23,-556.51 599.45,-546.59"/>
<polygon fill="black" stroke="black" points="602.33,-548.6 606.02,-538.67 596.94,-544.13 602.33,-548.6"/>
</g>
<!-- stage_zero_stdcxx&#45;&gt;stage_zero_lld -->
<g id="edge43" class="edge">
<title>stage_zero_stdcxx&#45;&gt;stage_zero_lld</title>
<path fill="none" stroke="black" d="M587.28,-579.17C609.5,-567.47 641.32,-550.72 664.43,-538.56"/>
<polygon fill="black" stroke="black" points="666.22,-541.58 673.44,-533.82 662.96,-535.38 666.22,-541.58"/>
</g>
<!-- stage_zero_stdcxx&#45;&gt;stage_zero_cmake -->
<g id="edge42" class="edge">
<title>stage_zero_stdcxx&#45;&gt;stage_zero_cmake</title>
<path fill="none" stroke="black" d="M527.57,-581.87C495.75,-571.25 446.55,-554.72 404,-540 400.49,-538.79 396.85,-537.52 393.2,-536.24"/>
<polygon fill="black" stroke="black" points="394.24,-532.89 383.64,-532.87 391.91,-539.49 394.24,-532.89"/>
</g>
<!-- stage_zero_stdcxx&#45;&gt;stage_one_clang -->
<g id="edge39" class="edge">
<title>stage_zero_stdcxx&#45;&gt;stage_one_clang</title>
<path fill="none" stroke="red" d="M559.78,-575.96C557.5,-546.44 551.88,-483.98 542,-432 540.38,-423.45 538.13,-414.25 535.91,-405.96"/>
<polygon fill="red" stroke="red" points="539.2,-404.75 533.16,-396.05 532.46,-406.62 539.2,-404.75"/>
</g>
<!-- stage_zero_stdcxx&#45;&gt;stage_one_lld -->
<g id="edge40" class="edge">
<title>stage_zero_stdcxx&#45;&gt;stage_one_lld</title>
<path fill="none" stroke="red" d="M536.99,-578.76C505.73,-560.47 449.15,-528.19 399,-504 361.68,-486 335.96,-502.5 313,-468 304.14,-454.68 306.67,-446.7 313,-432 318.95,-418.18 330.46,-406.29 341.51,-397.28"/>
<polygon fill="red" stroke="red" points="343.94,-399.83 349.77,-390.98 339.7,-394.27 343.94,-399.83"/>
</g>
<!-- stage_zero_kernel -->
<g id="node10" class="node">
<title>stage_zero_kernel</title>
<ellipse fill="none" stroke="red" cx="690" cy="-90" rx="58.49" ry="18"/>
<text text-anchor="middle" x="690" y="-86.3" font-family="Times,serif" font-size="14.00">linux&#45;headers</text>
</g>
<!-- stage_zero_kernel&#45;&gt;stage_one_cxx -->
<g id="edge21" class="edge">
<title>stage_zero_kernel&#45;&gt;stage_one_cxx</title>
<path fill="none" stroke="red" d="M646.35,-78.01C637.03,-75.86 627.21,-73.73 618,-72 494.07,-48.71 345.46,-30.7 277.8,-23.03"/>
<polygon fill="red" stroke="red" points="277.98,-19.53 267.65,-21.89 277.19,-26.49 277.98,-19.53"/>
</g>
<!-- stage_zero_gcc -->
<g id="node11" class="node">
<title>stage_zero_gcc</title>
<ellipse fill="none" stroke="red" cx="362" cy="-450" rx="40.09" ry="18"/>
<text text-anchor="middle" x="362" y="-446.3" font-family="Times,serif" font-size="14.00">libgcc_s</text>
</g>
<!-- stage_zero_gcc&#45;&gt;stage_one_clang -->
<g id="edge18" class="edge">
<title>stage_zero_gcc&#45;&gt;stage_one_clang</title>
<path fill="none" stroke="red" d="M390.54,-436.97C419.48,-424.76 464.24,-405.89 494.76,-393.02"/>
<polygon fill="red" stroke="red" points="496.28,-396.17 504.13,-389.06 493.56,-389.72 496.28,-396.17"/>
</g>
<!-- stage_zero_gcc&#45;&gt;stage_one_lld -->
<g id="edge19" class="edge">
<title>stage_zero_gcc&#45;&gt;stage_one_lld</title>
<path fill="none" stroke="red" d="M363.73,-431.7C364.5,-423.98 365.43,-414.71 366.29,-406.11"/>
<polygon fill="red" stroke="red" points="369.78,-406.4 367.29,-396.1 362.81,-405.71 369.78,-406.4"/>
</g>
<!-- stage_one_builtins&#45;&gt;stage_one_rtlib -->
<g id="edge1" class="edge">
<title>stage_one_builtins&#45;&gt;stage_one_rtlib</title>
<path fill="none" stroke="black" d="M372.93,-289.12C365.04,-280.2 355.03,-268.91 346.21,-258.94"/>
<polygon fill="black" stroke="black" points="348.69,-256.47 339.44,-251.31 343.45,-261.11 348.69,-256.47"/>
</g>
<!-- stage_one_builtins&#45;&gt;stage_one_unwind -->
<g id="edge2" class="edge">
<title>stage_one_builtins&#45;&gt;stage_one_unwind</title>
<path fill="none" stroke="black" d="M391.54,-288.06C395.62,-268.93 399.05,-237.65 385,-216 369.87,-192.69 341.49,-179.41 317.08,-171.97"/>
<polygon fill="black" stroke="black" points="317.83,-168.55 307.26,-169.22 315.94,-175.29 317.83,-168.55"/>
</g>
<!-- stage_one_rtlib&#45;&gt;stage_one_unwind -->
<g id="edge13" class="edge">
<title>stage_one_rtlib&#45;&gt;stage_one_unwind</title>
<path fill="none" stroke="black" d="M312.68,-216.41C306.33,-207.87 298.46,-197.28 291.41,-187.79"/>
<polygon fill="black" stroke="black" points="294.01,-185.41 285.23,-179.47 288.39,-189.58 294.01,-185.41"/>
</g>
<!-- stage_one_unwind&#45;&gt;stage_one_cxxabi -->
<g id="edge15" class="edge">
<title>stage_one_unwind&#45;&gt;stage_one_cxxabi</title>
<path fill="none" stroke="black" d="M258.48,-145.12C250.13,-135.99 239.5,-124.36 230.23,-114.22"/>
<polygon fill="black" stroke="black" points="232.8,-111.84 223.47,-106.82 227.63,-116.56 232.8,-111.84"/>
</g>
<!-- stage_one_unwind&#45;&gt;stage_one_cxx -->
<g id="edge14" class="edge">
<title>stage_one_unwind&#45;&gt;stage_one_cxx</title>
<path fill="none" stroke="black" d="M269.14,-143.87C263.66,-119.56 253.58,-74.82 247.09,-46.01"/>
<polygon fill="black" stroke="black" points="250.49,-45.18 244.87,-36.19 243.66,-46.71 250.49,-45.18"/>
</g>
<!-- stage_one_cxxabi&#45;&gt;stage_one_cxx -->
<g id="edge8" class="edge">
<title>stage_one_cxxabi&#45;&gt;stage_one_cxx</title>
<path fill="none" stroke="black" d="M216.58,-72.41C220.37,-64.13 225.03,-53.92 229.27,-44.66"/>
<polygon fill="black" stroke="black" points="232.5,-46.02 233.47,-35.47 226.13,-43.11 232.5,-46.02"/>
</g>
<!-- stage_one_clang&#45;&gt;stage_one_builtins -->
<g id="edge3" class="edge">
<title>stage_one_clang&#45;&gt;stage_one_builtins</title>
<path fill="none" stroke="black" d="M505.66,-365.91C482.97,-354.65 447.55,-337.06 421.3,-324.03"/>
<polygon fill="black" stroke="black" points="422.6,-320.77 412.09,-319.46 419.49,-327.04 422.6,-320.77"/>
</g>
<!-- stage_one_clang&#45;&gt;stage_one_rtlib -->
<g id="edge6" class="edge">
<title>stage_one_clang&#45;&gt;stage_one_rtlib</title>
<path fill="none" stroke="black" d="M514.36,-361.68C496.87,-342.67 464.98,-310.09 433,-288 412.43,-273.79 387.5,-261.29 366.77,-252"/>
<polygon fill="black" stroke="black" points="368.13,-248.77 357.57,-247.96 365.32,-255.18 368.13,-248.77"/>
</g>
<!-- stage_one_clang&#45;&gt;stage_one_unwind -->
<g id="edge7" class="edge">
<title>stage_one_clang&#45;&gt;stage_one_unwind</title>
<path fill="none" stroke="black" d="M519.81,-360.69C502.74,-328.31 460.22,-255.65 404,-216 376.77,-196.79 341.56,-183.05 314.5,-174.38"/>
<polygon fill="black" stroke="black" points="315.52,-171.03 304.93,-171.41 313.45,-177.71 315.52,-171.03"/>
</g>
<!-- stage_one_clang&#45;&gt;stage_one_cxxabi -->
<g id="edge5" class="edge">
<title>stage_one_clang&#45;&gt;stage_one_cxxabi</title>
<path fill="none" stroke="black" d="M524.76,-359.77C520.78,-341.21 512.92,-311.21 500,-288 479.46,-251.1 470.24,-243.27 438,-216 377.5,-164.83 292.74,-125.22 245.14,-105.27"/>
<polygon fill="black" stroke="black" points="246.42,-102.01 235.85,-101.43 243.75,-108.48 246.42,-102.01"/>
</g>
<!-- stage_one_clang&#45;&gt;stage_one_cxx -->
<g id="edge4" class="edge">
<title>stage_one_clang&#45;&gt;stage_one_cxx</title>
<path fill="none" stroke="black" d="M542.65,-361.83C564.74,-337.3 604,-286.45 604,-235 604,-235 604,-235 604,-161 604,-91.2 368.27,-41.68 276.73,-25.09"/>
<polygon fill="black" stroke="black" points="277.27,-21.63 266.82,-23.31 276.04,-28.52 277.27,-21.63"/>
</g>
<!-- stage_one_lld&#45;&gt;stage_one_builtins -->
<g id="edge9" class="edge">
<title>stage_one_lld&#45;&gt;stage_one_builtins</title>
<path fill="none" stroke="black" d="M373.36,-360.05C375.36,-352.26 377.79,-342.82 380.04,-334.08"/>
<polygon fill="black" stroke="black" points="383.46,-334.83 382.56,-324.28 376.68,-333.09 383.46,-334.83"/>
</g>
<!-- stage_one_lld&#45;&gt;stage_one_rtlib -->
<g id="edge12" class="edge">
<title>stage_one_lld&#45;&gt;stage_one_rtlib</title>
<path fill="none" stroke="black" d="M358.81,-360.88C352.78,-350.67 345.48,-336.99 341,-324 334.06,-303.87 329.98,-280.09 327.68,-262.18"/>
<polygon fill="black" stroke="black" points="331.15,-261.65 326.5,-252.12 324.19,-262.47 331.15,-261.65"/>
</g>
<!-- stage_one_lld&#45;&gt;stage_one_cxxabi -->
<g id="edge11" class="edge">
<title>stage_one_lld&#45;&gt;stage_one_cxxabi</title>
<path fill="none" stroke="black" d="M354.3,-362.9C323.95,-332.72 254.9,-258.23 227,-180 219.82,-159.86 215.19,-136.08 212.43,-118.17"/>
<polygon fill="black" stroke="black" points="215.87,-117.52 210.98,-108.12 208.95,-118.52 215.87,-117.52"/>
</g>
<!-- stage_one_lld&#45;&gt;stage_one_cxx -->
<g id="edge10" class="edge">
<title>stage_one_lld&#45;&gt;stage_one_cxx</title>
<path fill="none" stroke="black" d="M388.98,-365.82C423.35,-344.95 490,-296.54 490,-235 490,-235 490,-235 490,-161 490,-64.44 346.95,-32.68 277.7,-22.96"/>
<polygon fill="black" stroke="black" points="278.02,-19.47 267.65,-21.63 277.1,-26.41 278.02,-19.47"/>
</g>
<!-- r -->
<g id="node19" class="node">
<title>r</title>
<ellipse fill="none" stroke="blue" cx="716" cy="-594" rx="92.08" ry="18"/>
<text text-anchor="middle" x="716" y="-590.3" font-family="Times,serif" font-size="14.00">clang&#45;resource&#45;headers</text>
</g>
</g>
</svg>
