<?xml version="1.0" encoding="UTF-8" standalone="no"?>
<!DOCTYPE svg PUBLIC "-//W3C//DTD SVG 1.1//EN"
 "http://www.w3.org/Graphics/SVG/1.1/DTD/svg11.dtd">
<!-- Generated by graphviz version 2.43.0 (0)
 -->
<!-- Title: %3 Pages: 1 -->
<svg width="1030pt" height="283pt"
 viewBox="0.00 0.00 1029.56 283.00" xmlns="http://www.w3.org/2000/svg" xmlns:xlink="http://www.w3.org/1999/xlink">
<g id="graph0" class="graph" transform="scale(1 1) rotate(0) translate(4 279)">
<title>%3</title>
<polygon fill="white" stroke="transparent" points="-4,4 -4,-279 1025.56,-279 1025.56,4 -4,4"/>
<text text-anchor="start" x="334.28" y="-260.8" font-family="Times,serif" font-size="14.00" fill="blue">stage one (built from source) </text>
<text text-anchor="start" x="497.28" y="-260.8" font-family="Times,serif" font-size="14.00">to </text>
<text text-anchor="start" x="512.28" y="-260.8" font-family="Times,serif" font-size="14.00" fill="purple">stage two (re&#45;built from source)</text>
<!-- stage_zero_musl -->
<g id="node1" class="node">
<title>stage_zero_musl</title>
<ellipse fill="none" stroke="red" cx="110.27" cy="-234" rx="44.39" ry="18"/>
<text text-anchor="middle" x="110.27" y="-230.3" font-family="Times,serif" font-size="14.00">musl&#45;dev</text>
</g>
<!-- stage_one_unwind -->
<g id="node11" class="node">
<title>stage_one_unwind</title>
<ellipse fill="none" stroke="blue" cx="124.27" cy="-90" rx="37.09" ry="18"/>
<text text-anchor="middle" x="124.27" y="-86.3" font-family="Times,serif" font-size="14.00">unwind</text>
</g>
<!-- stage_zero_musl&#45;&gt;stage_one_unwind -->
<g id="edge12" class="edge">
<title>stage_zero_musl&#45;&gt;stage_one_unwind</title>
<path fill="none" stroke="red" d="M111.96,-215.87C114.34,-191.67 118.72,-147.21 121.57,-118.39"/>
<polygon fill="red" stroke="red" points="125.07,-118.48 122.57,-108.19 118.11,-117.8 125.07,-118.48"/>
</g>
<!-- stage_one_cxxabi -->
<g id="node12" class="node">
<title>stage_one_cxxabi</title>
<ellipse fill="none" stroke="blue" cx="48.27" cy="-162" rx="34.39" ry="18"/>
<text text-anchor="middle" x="48.27" y="-158.3" font-family="Times,serif" font-size="14.00">cxxabi</text>
</g>
<!-- stage_zero_musl&#45;&gt;stage_one_cxxabi -->
<g id="edge13" class="edge">
<title>stage_zero_musl&#45;&gt;stage_one_cxxabi</title>
<path fill="none" stroke="red" d="M95.89,-216.76C87.87,-207.71 77.75,-196.29 68.9,-186.3"/>
<polygon fill="red" stroke="red" points="71.39,-183.83 62.14,-178.67 66.15,-188.47 71.39,-183.83"/>
</g>
<!-- stage_one_cxx -->
<g id="node13" class="node">
<title>stage_one_cxx</title>
<ellipse fill="none" stroke="blue" cx="42.27" cy="-90" rx="27" ry="18"/>
<text text-anchor="middle" x="42.27" y="-86.3" font-family="Times,serif" font-size="14.00">cxx</text>
</g>
<!-- stage_zero_musl&#45;&gt;stage_one_cxx -->
<g id="edge14" class="edge">
<title>stage_zero_musl&#45;&gt;stage_one_cxx</title>
<path fill="none" stroke="red" d="M72.28,-224.57C48.55,-217.13 19.82,-203.65 5.27,-180 -7.82,-158.74 6.91,-132.04 21.48,-113.46"/>
<polygon fill="red" stroke="red" points="24.36,-115.47 28.06,-105.54 18.97,-110.99 24.36,-115.47"/>
</g>
<!-- stage_one_clang -->
<g id="node14" class="node">
<title>stage_one_clang</title>
<ellipse fill="none" stroke="blue" cx="360.27" cy="-162" rx="29.8" ry="18"/>
<text text-anchor="middle" x="360.27" y="-158.3" font-family="Times,serif" font-size="14.00">clang</text>
</g>
<!-- stage_zero_musl&#45;&gt;stage_one_clang -->
<g id="edge1" class="edge">
<title>stage_zero_musl&#45;&gt;stage_one_clang</title>
<path fill="none" stroke="red" d="M147.8,-224.36C199.36,-212.35 289.36,-190.88 321.27,-180 323.51,-179.24 325.8,-178.4 328.09,-177.51"/>
<polygon fill="red" stroke="red" points="329.48,-180.73 337.42,-173.71 326.84,-174.25 329.48,-180.73"/>
</g>
<!-- stage_one_lld -->
<g id="node15" class="node">
<title>stage_one_lld</title>
<ellipse fill="none" stroke="blue" cx="285.27" cy="-162" rx="27" ry="18"/>
<text text-anchor="middle" x="285.27" y="-158.3" font-family="Times,serif" font-size="14.00">lld</text>
</g>
<!-- stage_zero_musl&#45;&gt;stage_one_lld -->
<g id="edge5" class="edge">
<title>stage_zero_musl&#45;&gt;stage_one_lld</title>
<path fill="none" stroke="red" d="M142.29,-221.59C170.64,-211.29 213.03,-195.44 249.27,-180 251.08,-179.23 252.93,-178.42 254.8,-177.59"/>
<polygon fill="red" stroke="red" points="256.43,-180.69 264.07,-173.34 253.52,-174.32 256.43,-180.69"/>
</g>
<!-- stage_zero_cmake -->
<g id="node2" class="node">
<title>stage_zero_cmake</title>
<ellipse fill="none" stroke="red" cx="539.27" cy="-162" rx="34.39" ry="18"/>
<text text-anchor="middle" x="539.27" y="-158.3" font-family="Times,serif" font-size="14.00">cmake</text>
</g>
<!-- stage_zero_ninja -->
<g id="node3" class="node">
<title>stage_zero_ninja</title>
<ellipse fill="none" stroke="red" cx="698.27" cy="-234" rx="28.7" ry="18"/>
<text text-anchor="middle" x="698.27" y="-230.3" font-family="Times,serif" font-size="14.00">ninja</text>
</g>
<!-- stage_zero_python -->
<g id="node4" class="node">
<title>stage_zero_python</title>
<ellipse fill="none" stroke="red" cx="539.27" cy="-234" rx="39.79" ry="18"/>
<text text-anchor="middle" x="539.27" y="-230.3" font-family="Times,serif" font-size="14.00">python3</text>
</g>
<!-- stage_zero_python&#45;&gt;stage_zero_cmake -->
<g id="edge9" class="edge">
<title>stage_zero_python&#45;&gt;stage_zero_cmake</title>
<path fill="none" stroke="black" d="M539.27,-215.7C539.27,-207.98 539.27,-198.71 539.27,-190.11"/>
<polygon fill="black" stroke="black" points="542.77,-190.1 539.27,-180.1 535.77,-190.1 542.77,-190.1"/>
</g>
<!-- stage_zero_zlib -->
<g id="node5" class="node">
<title>stage_zero_zlib</title>
<ellipse fill="none" stroke="red" cx="335.27" cy="-234" rx="39.79" ry="18"/>
<text text-anchor="middle" x="335.27" y="-230.3" font-family="Times,serif" font-size="14.00">zlib&#45;dev</text>
</g>
<!-- stage_zero_zlib&#45;&gt;stage_one_clang -->
<g id="edge2" class="edge">
<title>stage_zero_zlib&#45;&gt;stage_one_clang</title>
<path fill="none" stroke="red" d="M341.32,-216.05C344.17,-208.06 347.65,-198.33 350.84,-189.4"/>
<polygon fill="red" stroke="red" points="354.2,-190.38 354.27,-179.79 347.61,-188.03 354.2,-190.38"/>
</g>
<!-- stage_zero_zlib&#45;&gt;stage_one_lld -->
<g id="edge6" class="edge">
<title>stage_zero_zlib&#45;&gt;stage_one_lld</title>
<path fill="none" stroke="red" d="M323.67,-216.76C317.33,-207.89 309.36,-196.74 302.33,-186.89"/>
<polygon fill="red" stroke="red" points="305.12,-184.77 296.46,-178.67 299.42,-188.84 305.12,-184.77"/>
</g>
<!-- stage_zero_git -->
<g id="node6" class="node">
<title>stage_zero_git</title>
<ellipse fill="none" stroke="red" cx="624.27" cy="-234" rx="27" ry="18"/>
<text text-anchor="middle" x="624.27" y="-230.3" font-family="Times,serif" font-size="14.00">git</text>
</g>
<!-- stage_zero_git&#45;&gt;stage_zero_cmake -->
<g id="edge10" class="edge">
<title>stage_zero_git&#45;&gt;stage_zero_cmake</title>
<path fill="none" stroke="black" d="M607.88,-219.5C595.7,-209.47 578.85,-195.6 564.9,-184.11"/>
<polygon fill="black" stroke="black" points="567.02,-181.32 557.07,-177.66 562.57,-186.72 567.02,-181.32"/>
</g>
<!-- stage_zero_stdcxx -->
<g id="node7" class="node">
<title>stage_zero_stdcxx</title>
<ellipse fill="none" stroke="red" cx="437.27" cy="-234" rx="44.69" ry="18"/>
<text text-anchor="middle" x="437.27" y="-230.3" font-family="Times,serif" font-size="14.00">libstdc++</text>
</g>
<!-- stage_zero_stdcxx&#45;&gt;stage_zero_cmake -->
<g id="edge11" class="edge">
<title>stage_zero_stdcxx&#45;&gt;stage_zero_cmake</title>
<path fill="none" stroke="black" d="M458.9,-218.15C473.9,-207.86 494.04,-194.04 510.41,-182.81"/>
<polygon fill="black" stroke="black" points="512.79,-185.42 519.05,-176.87 508.83,-179.64 512.79,-185.42"/>
</g>
<!-- stage_zero_stdcxx&#45;&gt;stage_one_clang -->
<g id="edge3" class="edge">
<title>stage_zero_stdcxx&#45;&gt;stage_one_clang</title>
<path fill="none" stroke="red" d="M419.79,-217.12C409.12,-207.41 395.34,-194.89 383.73,-184.33"/>
<polygon fill="red" stroke="red" points="385.85,-181.53 376.1,-177.39 381.14,-186.71 385.85,-181.53"/>
</g>
<!-- stage_zero_stdcxx&#45;&gt;stage_one_lld -->
<g id="edge7" class="edge">
<title>stage_zero_stdcxx&#45;&gt;stage_one_lld</title>
<path fill="none" stroke="red" d="M408.62,-220.03C385.11,-209.36 350.99,-193.81 321.27,-180 319.48,-179.17 317.64,-178.31 315.79,-177.45"/>
<polygon fill="red" stroke="red" points="317.1,-174.2 306.57,-173.11 314.13,-180.53 317.1,-174.2"/>
</g>
<!-- stage_zero_gcc -->
<g id="node8" class="node">
<title>stage_zero_gcc</title>
<ellipse fill="none" stroke="red" cx="237.27" cy="-234" rx="40.09" ry="18"/>
<text text-anchor="middle" x="237.27" y="-230.3" font-family="Times,serif" font-size="14.00">libgcc_s</text>
</g>
<!-- stage_zero_gcc&#45;&gt;stage_one_clang -->
<g id="edge4" class="edge">
<title>stage_zero_gcc&#45;&gt;stage_one_clang</title>
<path fill="none" stroke="red" d="M261.27,-219.34C281.01,-208.11 309.06,-192.14 330.27,-180.07"/>
<polygon fill="red" stroke="red" points="332.23,-182.98 339.19,-174.99 328.77,-176.9 332.23,-182.98"/>
</g>
<!-- stage_zero_gcc&#45;&gt;stage_one_lld -->
<g id="edge8" class="edge">
<title>stage_zero_gcc&#45;&gt;stage_one_lld</title>
<path fill="none" stroke="red" d="M248.64,-216.41C254.58,-207.74 261.97,-196.97 268.55,-187.38"/>
<polygon fill="red" stroke="red" points="271.53,-189.21 274.3,-178.99 265.76,-185.26 271.53,-189.21"/>
</g>
<!-- stage_one_builtins -->
<g id="node9" class="node">
<title>stage_one_builtins</title>
<ellipse fill="none" stroke="blue" cx="782.27" cy="-234" rx="37.09" ry="18"/>
<text text-anchor="middle" x="782.27" y="-230.3" font-family="Times,serif" font-size="14.00">builtins</text>
</g>
<!-- stage_one_rtlib -->
<g id="node10" class="node">
<title>stage_one_rtlib</title>
<ellipse fill="none" stroke="blue" cx="189.27" cy="-162" rx="50.89" ry="18"/>
<text text-anchor="middle" x="189.27" y="-158.3" font-family="Times,serif" font-size="14.00">compiler&#45;rt</text>
</g>
<!-- stage_two_clang -->
<g id="node17" class="node">
<title>stage_two_clang</title>
<ellipse fill="none" stroke="purple" cx="156.27" cy="-18" rx="29.8" ry="18"/>
<text text-anchor="middle" x="156.27" y="-14.3" font-family="Times,serif" font-size="14.00">clang</text>
</g>
<!-- stage_one_rtlib&#45;&gt;stage_two_clang -->
<g id="edge20" class="edge">
<title>stage_one_rtlib&#45;&gt;stage_two_clang</title>
<path fill="none" stroke="black" d="M185.87,-143.88C182.24,-125.92 176.21,-96.9 170.27,-72 168.25,-63.54 165.88,-54.36 163.68,-46.06"/>
<polygon fill="black" stroke="black" points="166.99,-44.88 161.01,-36.13 160.23,-46.7 166.99,-44.88"/>
</g>
<!-- stage_two_lld -->
<g id="node18" class="node">
<title>stage_two_lld</title>
<ellipse fill="none" stroke="purple" cx="264.27" cy="-90" rx="27" ry="18"/>
<text text-anchor="middle" x="264.27" y="-86.3" font-family="Times,serif" font-size="14.00">lld</text>
</g>
<!-- stage_one_rtlib&#45;&gt;stage_two_lld -->
<g id="edge21" class="edge">
<title>stage_one_rtlib&#45;&gt;stage_two_lld</title>
<path fill="none" stroke="black" d="M206.66,-144.76C217.07,-135.05 230.41,-122.6 241.63,-112.13"/>
<polygon fill="black" stroke="black" points="244.08,-114.63 249,-105.25 239.3,-109.51 244.08,-114.63"/>
</g>
<!-- stage_one_unwind&#45;&gt;stage_two_clang -->
<g id="edge18" class="edge">
<title>stage_one_unwind&#45;&gt;stage_two_clang</title>
<path fill="none" stroke="black" d="M132.01,-72.05C135.71,-63.97 140.21,-54.12 144.33,-45.11"/>
<polygon fill="black" stroke="black" points="147.62,-46.34 148.59,-35.79 141.25,-43.43 147.62,-46.34"/>
</g>
<!-- stage_one_cxxabi&#45;&gt;stage_one_cxx -->
<g id="edge15" class="edge">
<title>stage_one_cxxabi&#45;&gt;stage_one_cxx</title>
<path fill="none" stroke="black" d="M46.78,-143.7C46.12,-135.98 45.33,-126.71 44.59,-118.11"/>
<polygon fill="black" stroke="black" points="48.07,-117.77 43.73,-108.1 41.1,-118.37 48.07,-117.77"/>
</g>
<!-- stage_one_cxx&#45;&gt;stage_two_clang -->
<g id="edge19" class="edge">
<title>stage_one_cxx&#45;&gt;stage_two_clang</title>
<path fill="none" stroke="black" d="M61.6,-77.13C79.64,-66.05 106.79,-49.38 127.4,-36.73"/>
<polygon fill="black" stroke="black" points="129.37,-39.62 136.06,-31.4 125.71,-33.66 129.37,-39.62"/>
</g>
<!-- stage_one_clang&#45;&gt;stage_two_clang -->
<g id="edge16" class="edge">
<title>stage_one_clang&#45;&gt;stage_two_clang</title>
<path fill="none" stroke="black" d="M352.94,-144.24C343.47,-124.38 325.19,-91.55 300.27,-72 269.1,-47.55 225.56,-33.63 194.53,-26.24"/>
<polygon fill="black" stroke="black" points="195.05,-22.77 184.52,-23.99 193.51,-29.6 195.05,-22.77"/>
</g>
<!-- stage_one_lld&#45;&gt;stage_two_lld -->
<g id="edge17" class="edge">
<title>stage_one_lld&#45;&gt;stage_two_lld</title>
<path fill="none" stroke="black" d="M280.18,-144.05C277.78,-136.06 274.87,-126.33 272.19,-117.4"/>
<polygon fill="black" stroke="black" points="275.53,-116.36 269.3,-107.79 268.82,-118.37 275.53,-116.36"/>
</g>
<!-- r -->
<g id="node16" class="node">
<title>r</title>
<ellipse fill="none" stroke="blue" cx="929.27" cy="-234" rx="92.08" ry="18"/>
<text text-anchor="middle" x="929.27" y="-230.3" font-family="Times,serif" font-size="14.00">clang&#45;resource&#45;headers</text>
</g>
</g>
</svg>
